<svg width="1024" height="1024" viewBox="0 0 1024 1024" xmlns="http://www.w3.org/2000/svg">
  <!-- SSM Dojo favicon: the brand mark (torii + "SSM"), circle ring removed and
       enlarged + centered to match the landing nav logo. -->
  <defs><linearGradient id="bg" x1="0" y1="0" x2="1" y2="1">
    <stop offset="0" stop-color="#131c2b"/><stop offset="1" stop-color="#0a0f18"/>
  </linearGradient></defs>
  <rect x="64" y="64" width="896" height="896" rx="200" fill="url(#bg)"/>
  <rect x="68" y="68" width="888" height="888" rx="196" fill="none" stroke="#223047" stroke-width="8"/>
  <g transform="translate(1.4 -25.3) scale(1.8)" fill="#e8fffb">
    <g transform="translate(0,524) scale(0.1,-0.1)">
      <path d="M1408 3835 c-7 -8 81 -238 96 -247 6 -4 26 -8 44 -8 31 0 35 -4 64 -67 17 -38 35 -71 42 -75 6 -4 59 -8 119 -8 l107 0 0 -115 0 -114 -112 -3 -113 -3 -3 -82 -3 -83 116 0 115 0 0 -202 0 -203 -118 -58 c-141 -69 -322 -187 -433 -282 -78 -67 -243 -245 -234 -253 2 -2 37 25 78 61 257 224 660 416 1065 507 458 103 976 80 1422 -61 311 -99 627 -266 825 -435 83 -71 108 -88 85 -58 -150 197 -383 381 -658 519 l-132 66 2 197 3 197 118 3 118 3 -3 82 -3 82 -115 5 -115 5 -3 113 -3 112 113 0 c62 0 118 4 125 8 7 4 23 37 37 72 l24 65 48 5 c46 5 49 7 63 45 8 22 29 77 46 123 18 45 29 84 25 87 -4 2 -72 -6 -151 -19 -801 -133 -1486 -148 -2219 -51 -107 15 -393 59 -450 71 -14 2 -28 2 -32 -1z m1312 -514 c0 -61 -4 -112 -10 -116 -6 -4 -438 -8 -610 -5 -6 0 -10 45 -10 115 l0 115 315 0 315 0 0 -109z m860 -6 l0 -114 -305 -3 c-168 -2 -310 -1 -315 0 -6 2 -10 51 -10 118 l0 114 315 0 315 0 0 -115z m-2 -447 c3 -181 10 -170 -93 -142 -296 77 -649 103 -930 69 -131 -16 -302 -47 -379 -70 -91 -27 -86 -36 -86 145 l0 160 743 -2 742 -3 3 -157z"/>
      <path d="M2560 2510 c-91 -10 -189 -23 -217 -30 l-53 -12 0 -358 0 -358 120 -73 c336 -206 536 -332 542 -343 11 -16 10 -418 -1 -435 -13 -21 -135 -26 -273 -11 -66 7 -132 16 -147 19 l-26 7 -5 175 -5 174 -100 0 -100 0 -3 -257 -2 -256 32 -11 c71 -23 239 -52 363 -63 99 -9 167 -8 288 1 88 7 165 15 171 17 19 7 28 262 20 539 l-7 230 -91 56 c-50 31 -198 121 -329 200 l-237 144 2 215 3 215 50 8 c28 4 129 9 225 10 l175 2 5 -180 5 -180 100 0 100 0 1 267 c0 147 -2 272 -5 276 -8 12 -244 32 -351 31 -47 -1 -159 -9 -250 -19z"/>
      <path d="M3340 1606 l0 -864 33 8 c17 4 62 17 100 30 60 20 67 26 67 49 0 14 0 295 0 624 0 328 3 597 8 597 4 0 18 -19 30 -42 12 -24 55 -108 97 -188 l75 -144 0 -378 c0 -207 3 -379 8 -381 9 -6 173 98 190 121 10 13 13 85 11 332 l-3 315 57 115 c31 63 63 115 69 115 24 0 115 -135 137 -202 23 -71 24 -67 -35 -158 l-32 -50 7 -144 6 -144 68 73 c73 79 197 239 220 283 12 24 13 38 1 97 -29 152 -94 270 -219 395 -80 80 -203 175 -227 175 -4 0 -41 -65 -80 -145 -40 -80 -77 -144 -82 -142 -5 2 -62 103 -126 226 -65 122 -122 227 -127 232 -12 12 -194 59 -228 59 l-25 0 0 -864z"/>
      <path d="M1985 2391 c-266 -99 -409 -183 -545 -320 -131 -132 -208 -280 -226 -434 l-7 -57 352 0 351 0 0 -205 c0 -117 -4 -205 -9 -205 -13 0 -102 70 -197 157 l-82 73 -136 0 c-75 0 -136 -4 -136 -8 0 -22 182 -208 290 -296 130 -106 415 -276 464 -276 14 0 16 50 16 485 l0 485 -315 0 c-173 0 -315 3 -315 8 1 22 94 133 149 178 53 42 244 154 264 154 3 0 7 -30 9 -67 l3 -68 100 0 100 0 3 218 c2 202 1 217 -15 216 -10 -1 -63 -18 -118 -38z"/>
    </g>
  </g>
</svg>
